STARTFONT 2.1
FONT -Linotype-Helvetica-Bold-O-Normal-Sans-14-140-72-72-P-79-ISO8859-1
SIZE 14 72 72
FONTBOUNDINGBOX 20 19 -5 -4

STARTPROPERTIES 22
FONTNAME_REGISTRY "-"
FOUNDRY "Linotype"
FAMILY_NAME "Helvetica"
WEIGHT_NAME "Bold"
SLANT "O"
SETWIDTH_NAME "Normal"
ADD_STYLE_NAME "Sans"
PIXEL_SIZE 14
POINT_SIZE 140
RESOLUTION_X 72
RESOLUTION_Y 72
SPACING "P"
CHARSET_REGISTRY "ISO8859"
CHARSET_ENCODING "1"
FULL_NAME "Helvetica-BoldOblique"
AVERAGE_WIDTH 79
WEIGHT 10
X_HEIGHT 8
QUAD_WIDTH 9
DEFAULT_CHAR 32
FONT_DESCENT 3
FONT_ASCENT 13
ENDPROPERTIES

CHARS 190

STARTCHAR space
ENCODING 32
SWIDTH 278 0
DWIDTH 4 0
BBX 1 1 0 0
BITMAP
00
ENDCHAR

STARTCHAR exclam
ENCODING 33
SWIDTH 333 0
DWIDTH 5 0
BBX 4 11 2 0
BITMAP
10
30
70
60
60
60
60
40
00
C0
C0
ENDCHAR

STARTCHAR quotedbl
ENCODING 34
SWIDTH 474 0
DWIDTH 7 0
BBX 5 4 2 7
BITMAP
D8
D8
D8
90
ENDCHAR

STARTCHAR numbersign
ENCODING 35
SWIDTH 556 0
DWIDTH 8 0
BBX 9 12 0 -1
BITMAP
0D80
0D80
1B00
7F80
7F80
3600
3600
FF00
FE00
6C00
D800
D800
ENDCHAR

STARTCHAR dollar
ENCODING 36
SWIDTH 556 0
DWIDTH 8 0
BBX 8 13 1 -1
BITMAP
04
1E
3F
6B
68
38
1C
1E
16
D6
FC
78
20
ENDCHAR

STARTCHAR percent
ENCODING 37
SWIDTH 889 0
DWIDTH 12 0
BBX 11 11 2 0
BITMAP
7840
D8C0
8980
8B00
DA00
F5E0
0F60
1A20
3220
6360
43C0
ENDCHAR

STARTCHAR ampersand
ENCODING 38
SWIDTH 722 0
DWIDTH 10 0
BBX 9 11 1 0
BITMAP
0C00
1E00
3300
3300
1E00
7C80
6D80
C700
C600
FF00
7900
ENDCHAR

STARTCHAR quoteright
ENCODING 39
SWIDTH 278 0
DWIDTH 4 0
BBX 3 4 2 7
BITMAP
60
60
40
C0
ENDCHAR

STARTCHAR parenleft
ENCODING 40
SWIDTH 333 0
DWIDTH 5 0
BBX 5 14 1 -3
BITMAP
18
10
30
60
60
40
C0
C0
C0
C0
C0
C0
C0
60
ENDCHAR

STARTCHAR parenright
ENCODING 41
SWIDTH 333 0
DWIDTH 5 0
BBX 5 14 0 -3
BITMAP
30
18
18
18
18
18
18
18
10
30
30
60
40
C0
ENDCHAR

STARTCHAR asterisk
ENCODING 42
SWIDTH 389 0
DWIDTH 5 0
BBX 5 5 2 6
BITMAP
20
A8
70
70
A8
ENDCHAR

STARTCHAR plus
ENCODING 43
SWIDTH 584 0
DWIDTH 8 0
BBX 7 8 1 0
BITMAP
18
18
18
FE
FE
30
30
30
ENDCHAR

STARTCHAR comma
ENCODING 44
SWIDTH 278 0
DWIDTH 4 0
BBX 3 5 0 -2
BITMAP
60
60
60
40
C0
ENDCHAR

STARTCHAR minus
ENCODING 45
SWIDTH 584 0
DWIDTH 8 0
BBX 7 2 1 2
BITMAP
FE
FE
ENDCHAR

STARTCHAR period
ENCODING 46
SWIDTH 278 0
DWIDTH 4 0
BBX 3 2 1 0
BITMAP
60
C0
ENDCHAR

STARTCHAR slash
ENCODING 47
SWIDTH 278 0
DWIDTH 4 0
BBX 6 11 0 0
BITMAP
04
0C
08
18
10
30
20
60
40
C0
80
ENDCHAR

STARTCHAR zero
ENCODING 48
SWIDTH 556 0
DWIDTH 8 0
BBX 7 11 1 0
BITMAP
1C
3E
66
62
66
C6
C6
C6
CC
FC
78
ENDCHAR

STARTCHAR one
ENCODING 49
SWIDTH 556 0
DWIDTH 8 0
BBX 5 11 2 0
BITMAP
18
38
F8
30
30
30
30
30
60
60
60
ENDCHAR

STARTCHAR two
ENCODING 50
SWIDTH 556 0
DWIDTH 8 0
BBX 8 11 0 0
BITMAP
0E
3F
33
23
03
06
0C
18
70
FE
FE
ENDCHAR

STARTCHAR three
ENCODING 51
SWIDTH 556 0
DWIDTH 8 0
BBX 8 11 1 0
BITMAP
1E
3F
63
66
1E
1E
06
C6
CE
FC
78
ENDCHAR

STARTCHAR four
ENCODING 52
SWIDTH 556 0
DWIDTH 8 0
BBX 8 11 1 0
BITMAP
07
0E
1E
16
36
66
4C
FE
FE
0C
0C
ENDCHAR

STARTCHAR five
ENCODING 53
SWIDTH 556 0
DWIDTH 8 0
BBX 8 11 1 0
BITMAP
1F
3F
30
7C
7E
66
06
06
CE
FC
78
ENDCHAR

STARTCHAR six
ENCODING 54
SWIDTH 556 0
DWIDTH 8 0
BBX 8 11 1 0
BITMAP
1E
3F
60
60
7C
FE
C6
C6
CC
FC
78
ENDCHAR

STARTCHAR seven
ENCODING 55
SWIDTH 556 0
DWIDTH 8 0
BBX 8 11 2 0
BITMAP
7F
FE
06
0C
18
30
30
60
60
E0
C0
ENDCHAR

STARTCHAR eight
ENCODING 56
SWIDTH 556 0
DWIDTH 8 0
BBX 8 11 1 0
BITMAP
1E
3F
63
63
3E
7E
66
C6
C6
FC
78
ENDCHAR

STARTCHAR nine
ENCODING 57
SWIDTH 556 0
DWIDTH 8 0
BBX 8 11 1 0
BITMAP
1C
3E
63
63
63
66
7E
3E
0C
FC
70
ENDCHAR

STARTCHAR colon
ENCODING 58
SWIDTH 333 0
DWIDTH 5 0
BBX 4 8 2 0
BITMAP
30
60
00
00
00
00
60
C0
ENDCHAR

STARTCHAR semicolon
ENCODING 59
SWIDTH 333 0
DWIDTH 5 0
BBX 4 10 1 -2
BITMAP
30
60
00
00
00
00
60
60
40
C0
ENDCHAR

STARTCHAR less
ENCODING 60
SWIDTH 584 0
DWIDTH 8 0
BBX 8 8 1 0
BITMAP
03
0E
3C
F0
F0
7C
1C
06
ENDCHAR

STARTCHAR equal
ENCODING 61
SWIDTH 584 0
DWIDTH 8 0
BBX 8 6 1 1
BITMAP
7F
7F
00
00
FE
FE
ENDCHAR

STARTCHAR greater
ENCODING 62
SWIDTH 584 0
DWIDTH 8 0
BBX 8 8 1 0
BITMAP
60
38
3E
0F
0E
7C
70
C0
ENDCHAR

STARTCHAR question
ENCODING 63
SWIDTH 611 0
DWIDTH 9 0
BBX 7 11 2 0
BITMAP
3C
7E
E6
C6
0E
1C
38
30
00
60
60
ENDCHAR

STARTCHAR at
ENCODING 64
SWIDTH 975 0
DWIDTH 14 0
BBX 13 13 1 -2
BITMAP
03E0
0C10
1008
23E8
4448
48C8
8888
9098
91B0
8F60
8000
6180
1F80
ENDCHAR

STARTCHAR A
ENCODING 65
SWIDTH 722 0
DWIDTH 10 0
BBX 9 11 0 0
BITMAP
0380
0780
0F80
0D80
1980
1980
3980
3F80
7F80
6180
C180
ENDCHAR

STARTCHAR B
ENCODING 66
SWIDTH 722 0
DWIDTH 10 0
BBX 9 11 1 0
BITMAP
3F80
3F80
3180
7180
7F80
7F00
6180
6180
E380
FF00
FE00
ENDCHAR

STARTCHAR C
ENCODING 67
SWIDTH 722 0
DWIDTH 10 0
BBX 9 11 2 0
BITMAP
0F00
3F80
7180
6080
E000
C000
C000
C100
E300
7E00
3C00
ENDCHAR

STARTCHAR D
ENCODING 68
SWIDTH 722 0
DWIDTH 10 0
BBX 10 11 1 0
BITMAP
3F00
3F80
31C0
70C0
60C0
60C0
6180
6180
E380
FF00
FE00
ENDCHAR

STARTCHAR E
ENCODING 69
SWIDTH 667 0
DWIDTH 9 0
BBX 10 11 1 0
BITMAP
3FC0
3F80
3000
7000
7F00
7F00
6000
6000
E000
FF00
FF00
ENDCHAR

STARTCHAR F
ENCODING 70
SWIDTH 611 0
DWIDTH 9 0
BBX 9 11 1 0
BITMAP
3F80
3F80
3000
7000
7F00
7F00
6000
6000
E000
C000
C000
ENDCHAR

STARTCHAR G
ENCODING 71
SWIDTH 778 0
DWIDTH 11 0
BBX 10 11 2 0
BITMAP
0F00
3F80
71C0
60C0
C000
C7C0
C780
C180
E380
7F80
3D80
ENDCHAR

STARTCHAR H
ENCODING 72
SWIDTH 722 0
DWIDTH 10 0
BBX 10 11 1 0
BITMAP
30C0
30C0
30C0
30C0
7F80
7F80
6180
6180
C300
C300
C300
ENDCHAR

STARTCHAR I
ENCODING 73
SWIDTH 278 0
DWIDTH 4 0
BBX 4 11 1 0
BITMAP
30
30
30
70
60
60
60
E0
C0
C0
C0
ENDCHAR

STARTCHAR J
ENCODING 74
SWIDTH 556 0
DWIDTH 8 0
BBX 8 11 1 0
BITMAP
03
03
03
06
06
06
06
C6
CC
FC
78
ENDCHAR

STARTCHAR K
ENCODING 75
SWIDTH 722 0
DWIDTH 10 0
BBX 10 11 1 0
BITMAP
30C0
3180
3300
3600
6C00
7C00
7C00
6600
6700
C300
C180
ENDCHAR

STARTCHAR L
ENCODING 76
SWIDTH 611 0
DWIDTH 9 0
BBX 7 11 1 0
BITMAP
30
30
30
70
60
60
60
60
E0
FE
FE
ENDCHAR

STARTCHAR M
ENCODING 77
SWIDTH 833 0
DWIDTH 12 0
BBX 12 11 1 0
BITMAP
3870
38F0
38F0
78E0
69E0
6960
6B60
6B60
EAC0
CEC0
C4C0
ENDCHAR

STARTCHAR N
ENCODING 78
SWIDTH 722 0
DWIDTH 10 0
BBX 11 11 1 0
BITMAP
3860
3860
3860
6CC0
6CC0
6CC0
66C0
66C0
C780
C380
C300
ENDCHAR

STARTCHAR O
ENCODING 79
SWIDTH 778 0
DWIDTH 11 0
BBX 10 11 1 0
BITMAP
0F00
3F80
71C0
60C0
C0C0
C0C0
C0C0
C180
E380
7F00
3C00
ENDCHAR

STARTCHAR P
ENCODING 80
SWIDTH 667 0
DWIDTH 9 0
BBX 9 11 1 0
BITMAP
3F00
3F80
3180
7180
6180
7F00
7E00
6000
E000
C000
C000
ENDCHAR

STARTCHAR Q
ENCODING 81
SWIDTH 778 0
DWIDTH 11 0
BBX 10 11 2 0
BITMAP
0F00
3F80
71C0
60C0
E0C0
C0C0
C0C0
C580
E700
7F80
3D00
ENDCHAR

STARTCHAR R
ENCODING 82
SWIDTH 722 0
DWIDTH 10 0
BBX 10 11 1 0
BITMAP
3F80
3FC0
30C0
71C0
7F80
7F00
6300
6300
E300
C300
C380
ENDCHAR

STARTCHAR S
ENCODING 83
SWIDTH 667 0
DWIDTH 9 0
BBX 9 11 1 0
BITMAP
1F00
3F80
7180
6180
6000
7E00
0F00
C300
C700
FE00
3C00
ENDCHAR

STARTCHAR T
ENCODING 84
SWIDTH 611 0
DWIDTH 9 0
BBX 9 11 2 0
BITMAP
7F80
FF00
1800
1800
1800
3000
3000
3000
6000
6000
6000
ENDCHAR

STARTCHAR U
ENCODING 85
SWIDTH 722 0
DWIDTH 10 0
BBX 10 11 2 0
BITMAP
30C0
30C0
6180
6180
6180
E300
C300
C300
C700
FE00
7C00
ENDCHAR

STARTCHAR V
ENCODING 86
SWIDTH 667 0
DWIDTH 9 0
BBX 9 11 3 0
BITMAP
C180
C300
C700
C600
CE00
6C00
7800
7800
7000
7000
6000
ENDCHAR

STARTCHAR W
ENCODING 87
SWIDTH 944 0
DWIDTH 13 0
BBX 13 11 2 0
BITMAP
C618
C630
CE30
CE60
DB60
DB40
D340
F2C0
7380
6380
6300
ENDCHAR

STARTCHAR X
ENCODING 88
SWIDTH 667 0
DWIDTH 9 0
BBX 11 11 0 0
BITMAP
38E0
19C0
1F80
0F00
0E00
0E00
0E00
1E00
3F00
7300
E380
ENDCHAR

STARTCHAR Y
ENCODING 89
SWIDTH 667 0
DWIDTH 9 0
BBX 9 11 3 0
BITMAP
C180
C300
6600
6C00
7C00
3800
3000
3000
3000
3000
6000
ENDCHAR

STARTCHAR Z
ENCODING 90
SWIDTH 611 0
DWIDTH 9 0
BBX 10 11 0 0
BITMAP
3FC0
3FC0
0380
0700
0E00
0C00
1800
3000
7000
FF00
FF00
ENDCHAR

STARTCHAR bracketleft
ENCODING 91
SWIDTH 333 0
DWIDTH 5 0
BBX 6 14 0 -3
BITMAP
1C
3C
30
30
30
60
60
60
60
C0
C0
C0
F0
F0
ENDCHAR

STARTCHAR backslash
ENCODING 92
SWIDTH 278 0
DWIDTH 4 0
BBX 2 11 2 0
BITMAP
80
C0
C0
C0
C0
C0
C0
C0
C0
C0
40
ENDCHAR

STARTCHAR bracketright
ENCODING 93
SWIDTH 333 0
DWIDTH 5 0
BBX 6 14 0 -3
BITMAP
3C
3C
0C
0C
0C
18
18
18
18
30
30
30
F0
F0
ENDCHAR

STARTCHAR asciicircum
ENCODING 94
SWIDTH 584 0
DWIDTH 8 0
BBX 6 6 2 5
BITMAP
18
18
38
6C
6C
C4
ENDCHAR

STARTCHAR underscore
ENCODING 95
SWIDTH 556 0
DWIDTH 8 0
BBX 9 1 0 -3
BITMAP
FF80
ENDCHAR

STARTCHAR quoteleft
ENCODING 96
SWIDTH 278 0
DWIDTH 4 0
BBX 3 4 2 7
BITMAP
60
40
C0
C0
ENDCHAR

STARTCHAR a
ENCODING 97
SWIDTH 556 0
DWIDTH 8 0
BBX 7 8 1 0
BITMAP
3E
7E
46
1E
7E
C6
FE
7A
ENDCHAR

STARTCHAR b
ENCODING 98
SWIDTH 611 0
DWIDTH 9 0
BBX 8 11 1 0
BITMAP
30
30
30
6E
7F
73
63
63
E6
FE
FC
ENDCHAR

STARTCHAR c
ENCODING 99
SWIDTH 556 0
DWIDTH 8 0
BBX 7 8 1 0
BITMAP
3C
7E
62
C0
C0
C6
FC
78
ENDCHAR

STARTCHAR d
ENCODING 100
SWIDTH 611 0
DWIDTH 9 0
BBX 9 11 1 0
BITMAP
0180
0300
0300
3F00
7F00
6600
C600
C600
CE00
FE00
7600
ENDCHAR

STARTCHAR e
ENCODING 101
SWIDTH 556 0
DWIDTH 8 0
BBX 7 8 1 0
BITMAP
3C
7E
66
FE
FC
C0
FE
7C
ENDCHAR

STARTCHAR f
ENCODING 102
SWIDTH 333 0
DWIDTH 5 0
BBX 5 11 1 0
BITMAP
18
38
30
F8
F8
60
60
60
E0
C0
C0
ENDCHAR

STARTCHAR g
ENCODING 103
SWIDTH 611 0
DWIDTH 9 0
BBX 9 11 0 -3
BITMAP
1D80
3F80
7300
6300
6300
6700
7F00
3E00
C600
FE00
7800
ENDCHAR

STARTCHAR h
ENCODING 104
SWIDTH 611 0
DWIDTH 9 0
BBX 8 11 1 0
BITMAP
30
30
30
7E
7F
73
63
66
C6
C6
C6
ENDCHAR

STARTCHAR i
ENCODING 105
SWIDTH 278 0
DWIDTH 4 0
BBX 4 11 1 0
BITMAP
30
30
00
30
30
60
60
60
C0
C0
C0
ENDCHAR

STARTCHAR j
ENCODING 106
SWIDTH 278 0
DWIDTH 4 0
BBX 6 14 0 -3
BITMAP
0C
18
00
18
18
18
30
30
30
30
30
60
E0
C0
ENDCHAR

STARTCHAR k
ENCODING 107
SWIDTH 556 0
DWIDTH 8 0
BBX 8 11 1 0
BITMAP
30
30
30
77
6E
7C
78
78
EC
CC
CE
ENDCHAR

STARTCHAR l
ENCODING 108
SWIDTH 278 0
DWIDTH 4 0
BBX 4 11 1 0
BITMAP
30
30
30
60
60
60
60
60
C0
C0
C0
ENDCHAR

STARTCHAR m
ENCODING 109
SWIDTH 889 0
DWIDTH 12 0
BBX 12 8 1 0
BITMAP
3EE0
7FF0
6730
6630
6630
CC60
CC60
CC60
ENDCHAR

STARTCHAR n
ENCODING 110
SWIDTH 611 0
DWIDTH 9 0
BBX 8 8 1 0
BITMAP
7E
7F
73
63
63
C6
C6
C6
ENDCHAR

STARTCHAR o
ENCODING 111
SWIDTH 611 0
DWIDTH 9 0
BBX 8 8 1 0
BITMAP
1E
7F
63
C3
C3
C6
FE
78
ENDCHAR

STARTCHAR p
ENCODING 112
SWIDTH 611 0
DWIDTH 9 0
BBX 9 11 0 -3
BITMAP
3700
3F80
3180
6180
6180
6300
7F00
7C00
6000
C000
C000
ENDCHAR

STARTCHAR q
ENCODING 113
SWIDTH 611 0
DWIDTH 9 0
BBX 8 11 1 -3
BITMAP
3F
7F
63
C3
C3
C6
FE
76
06
0C
0C
ENDCHAR

STARTCHAR r
ENCODING 114
SWIDTH 389 0
DWIDTH 5 0
BBX 6 8 1 0
BITMAP
7C
7C
60
60
60
C0
C0
C0
ENDCHAR

STARTCHAR s
ENCODING 115
SWIDTH 556 0
DWIDTH 8 0
BBX 7 8 1 0
BITMAP
3E
7C
60
7C
3E
06
FE
7C
ENDCHAR

STARTCHAR t
ENCODING 116
SWIDTH 333 0
DWIDTH 5 0
BBX 4 10 1 0
BITMAP
30
60
F0
F0
60
60
C0
C0
C0
E0
ENDCHAR

STARTCHAR u
ENCODING 117
SWIDTH 611 0
DWIDTH 9 0
BBX 8 8 1 0
BITMAP
63
63
63
C6
C6
CE
FE
7C
ENDCHAR

STARTCHAR v
ENCODING 118
SWIDTH 556 0
DWIDTH 8 0
BBX 7 8 2 0
BITMAP
C6
C6
CC
CC
D8
78
70
30
ENDCHAR

STARTCHAR w
ENCODING 119
SWIDTH 778 0
DWIDTH 11 0
BBX 11 8 2 0
BITMAP
CC60
CCE0
DCC0
D580
D580
F700
6700
6300
ENDCHAR

STARTCHAR x
ENCODING 120
SWIDTH 556 0
DWIDTH 8 0
BBX 9 8 0 0
BITMAP
3380
3F00
1E00
1C00
1C00
3C00
7E00
E600
ENDCHAR

STARTCHAR y
ENCODING 121
SWIDTH 556 0
DWIDTH 8 0
BBX 9 11 1 -3
BITMAP
6380
6300
3600
3600
3C00
3C00
3800
3800
3000
E000
C000
ENDCHAR

STARTCHAR z
ENCODING 122
SWIDTH 500 0
DWIDTH 7 0
BBX 8 8 0 0
BITMAP
3F
3E
0E
1C
38
70
FE
FC
ENDCHAR

STARTCHAR braceleft
ENCODING 123
SWIDTH 389 0
DWIDTH 5 0
BBX 5 14 1 -3
BITMAP
18
18
30
30
30
60
C0
60
60
C0
C0
C0
60
60
ENDCHAR

STARTCHAR bar
ENCODING 124
SWIDTH 280 0
DWIDTH 4 0
BBX 4 14 1 -3
BITMAP
10
10
30
30
20
20
60
60
40
40
C0
C0
80
80
ENDCHAR

STARTCHAR braceright
ENCODING 125
SWIDTH 389 0
DWIDTH 5 0
BBX 5 14 0 -3
BITMAP
30
30
18
18
18
30
30
18
30
60
60
60
C0
C0
ENDCHAR

STARTCHAR asciitilde
ENCODING 126
SWIDTH 584 0
DWIDTH 8 0
BBX 7 2 1 2
BITMAP
72
9C
ENDCHAR

STARTCHAR exclamdown
ENCODING 161
SWIDTH 333 0
DWIDTH 5 0
BBX 4 10 0 -2
BITMAP
30
30
00
20
60
60
60
E0
E0
C0
ENDCHAR

STARTCHAR cent
ENCODING 162
SWIDTH 556 0
DWIDTH 8 0
BBX 7 10 1 -1
BITMAP
08
3C
7E
52
D0
D0
D6
FC
78
20
ENDCHAR

STARTCHAR sterling
ENCODING 163
SWIDTH 556 0
DWIDTH 8 0
BBX 8 11 1 0
BITMAP
1E
3F
73
63
30
7C
30
20
40
FE
FE
ENDCHAR

STARTCHAR currency
ENCODING 164
SWIDTH 556 0
DWIDTH 8 0
BBX 8 8 1 1
BITMAP
21
7F
7E
66
66
7E
FE
84
ENDCHAR

STARTCHAR yen
ENCODING 165
SWIDTH 556 0
DWIDTH 8 0
BBX 9 11 2 0
BITMAP
6180
6300
6600
3C00
3800
FE00
3000
FC00
3000
3000
3000
ENDCHAR

STARTCHAR brokenbar
ENCODING 166
SWIDTH 280 0
DWIDTH 4 0
BBX 4 14 1 -3
BITMAP
10
10
30
30
20
20
00
00
40
40
C0
C0
80
80
ENDCHAR

STARTCHAR section
ENCODING 167
SWIDTH 556 0
DWIDTH 8 0
BBX 8 14 1 -3
BITMAP
1E
3F
33
38
7C
6E
66
76
3E
1C
0C
CC
FC
70
ENDCHAR

STARTCHAR dieresis
ENCODING 168
SWIDTH 333 0
DWIDTH 5 0
BBX 5 2 2 9
BITMAP
D8
D8
ENDCHAR

STARTCHAR copyright
ENCODING 169
SWIDTH 737 0
DWIDTH 10 0
BBX 11 11 1 0
BITMAP
0F80
1040
2F20
5120
9020
9020
9020
9140
9E80
4100
3E00
ENDCHAR

STARTCHAR ordfeminine
ENCODING 170
SWIDTH 370 0
DWIDTH 5 0
BBX 5 7 1 4
BITMAP
78
08
38
58
58
68
F8
ENDCHAR

STARTCHAR guillemotleft
ENCODING 171
SWIDTH 556 0
DWIDTH 8 0
BBX 6 7 2 1
BITMAP
24
48
D8
90
D8
48
48
ENDCHAR

STARTCHAR logicalnot
ENCODING 172
SWIDTH 584 0
DWIDTH 8 0
BBX 8 4 1 1
BITMAP
FF
FE
06
06
ENDCHAR

STARTCHAR hyphen
ENCODING 173
SWIDTH 333 0
DWIDTH 5 0
BBX 4 2 1 3
BITMAP
F0
F0
ENDCHAR

STARTCHAR registered
ENCODING 174
SWIDTH 737 0
DWIDTH 10 0
BBX 11 11 1 0
BITMAP
0F80
1040
3F20
5120
9E20
9220
9220
9240
A180
4100
3E00
ENDCHAR

STARTCHAR macron
ENCODING 175
SWIDTH 333 0
DWIDTH 5 0
BBX 4 1 2 10
BITMAP
F0
ENDCHAR

STARTCHAR degree
ENCODING 176
SWIDTH 400 0
DWIDTH 8 0
BBX 4 5 3 5
BITMAP
60
90
90
90
60
ENDCHAR

STARTCHAR plusminus
ENCODING 177
SWIDTH 584 0
DWIDTH 8 0
BBX 8 10 1 0
BITMAP
0C
0C
0C
7F
7F
18
18
18
FE
FE
ENDCHAR

STARTCHAR twosuperior
ENCODING 178
SWIDTH 333 0
DWIDTH 5 0
BBX 5 6 -4 5
BITMAP
30
48
18
20
40
F0
ENDCHAR

STARTCHAR threesuperior
ENCODING 179
SWIDTH 333 0
DWIDTH 5 0
BBX 4 6 -4 5
BITMAP
70
50
10
20
90
E0
ENDCHAR

STARTCHAR acute
ENCODING 180
SWIDTH 333 0
DWIDTH 5 0
BBX 3 2 3 9
BITMAP
60
C0
ENDCHAR

STARTCHAR mu
ENCODING 181
SWIDTH 611 0
DWIDTH 9 0
BBX 9 11 0 -3
BITMAP
3180
3180
3180
6300
6300
6700
7F00
7B00
C000
C000
C000
ENDCHAR

STARTCHAR paragraph
ENCODING 182
SWIDTH 556 0
DWIDTH 8 0
BBX 8 13 2 -2
BITMAP
3F
7E
FE
F6
F4
74
34
34
24
2C
68
68
58
ENDCHAR

STARTCHAR periodcentered
ENCODING 183
SWIDTH 278 0
DWIDTH 7 0
BBX 3 2 3 4
BITMAP
60
C0
ENDCHAR

STARTCHAR cedilla
ENCODING 184
SWIDTH 333 0
DWIDTH 5 0
BBX 4 4 0 -3
BITMAP
20
70
10
E0
ENDCHAR

STARTCHAR onesuperior
ENCODING 185
SWIDTH 333 0
DWIDTH 5 0
BBX 3 6 -5 5
BITMAP
20
E0
20
20
40
40
ENDCHAR

STARTCHAR ordmasculine
ENCODING 186
SWIDTH 365 0
DWIDTH 5 0
BBX 5 7 1 4
BITMAP
38
48
48
48
70
00
F0
ENDCHAR

STARTCHAR guillemotright
ENCODING 187
SWIDTH 556 0
DWIDTH 8 0
BBX 6 7 1 1
BITMAP
48
48
6C
24
6C
48
90
ENDCHAR

STARTCHAR onequarter
ENCODING 188
SWIDTH 834 0
DWIDTH 12 0
BBX 10 11 3 0
BITMAP
2040
E0C0
2180
2300
4600
46C0
0CC0
1940
3240
63C0
4080
ENDCHAR

STARTCHAR onehalf
ENCODING 189
SWIDTH 834 0
DWIDTH 12 0
BBX 11 11 3 0
BITMAP
2040
E0C0
2180
2300
4600
46C0
0D20
1860
3080
6100
43C0
ENDCHAR

STARTCHAR threequarters
ENCODING 190
SWIDTH 834 0
DWIDTH 12 0
BBX 11 11 4 0
BITMAP
7020
5060
10C0
2180
9300
F360
0660
0CA0
1920
31E0
2040
ENDCHAR

STARTCHAR questiondown
ENCODING 191
SWIDTH 611 0
DWIDTH 9 0
BBX 7 11 1 -3
BITMAP
0C
0C
00
18
18
70
E0
C6
CE
FC
78
ENDCHAR

STARTCHAR Agrave
ENCODING 192
SWIDTH 722 0
DWIDTH 10 0
BBX 9 14 0 0
BITMAP
0600
0300
0000
0380
0780
0F80
0D80
1980
1980
3980
3F80
7F80
6180
C180
ENDCHAR

STARTCHAR Aacute
ENCODING 193
SWIDTH 722 0
DWIDTH 10 0
BBX 9 14 0 0
BITMAP
0180
0300
0000
0380
0780
0F80
0D80
1980
1980
3980
3F80
7F80
6180
C180
ENDCHAR

STARTCHAR Acircumflex
ENCODING 194
SWIDTH 722 0
DWIDTH 10 0
BBX 10 14 0 0
BITMAP
0380
06C0
0000
0380
0780
0F80
0D80
1980
1980
3980
3F80
7F80
6180
C180
ENDCHAR

STARTCHAR Atilde
ENCODING 195
SWIDTH 722 0
DWIDTH 10 0
BBX 9 14 0 0
BITMAP
0E80
0B80
0000
0380
0780
0F80
0D80
1980
1980
3980
3F80
7F80
6180
C180
ENDCHAR

STARTCHAR Adieresis
ENCODING 196
SWIDTH 722 0
DWIDTH 10 0
BBX 10 14 0 0
BITMAP
06C0
06C0
0000
0380
0780
0F80
0D80
1980
1980
3980
3F80
7F80
6180
C180
ENDCHAR

STARTCHAR Aring
ENCODING 197
SWIDTH 722 0
DWIDTH 10 0
BBX 9 15 0 0
BITMAP
0180
0280
0300
0000
0380
0780
0F80
0D80
1980
1980
3980
3F80
7F80
6180
C180
ENDCHAR

STARTCHAR AE
ENCODING 198
SWIDTH 1000 0
DWIDTH 14 0
BBX 15 11 0 0
BITMAP
03FE
07FE
0EC0
0CC0
1DFC
19FC
3980
3F80
7F80
63FC
C3FC
ENDCHAR

STARTCHAR Ccedilla
ENCODING 199
SWIDTH 722 0
DWIDTH 10 0
BBX 9 15 2 -4
BITMAP
0F00
3F80
7180
6080
E000
C000
C000
C100
E300
7E00
3C00
1000
3800
0800
7000
ENDCHAR

STARTCHAR Egrave
ENCODING 200
SWIDTH 667 0
DWIDTH 9 0
BBX 10 14 1 0
BITMAP
0C00
0600
0000
3FC0
3F80
3000
7000
7F00
7F00
6000
6000
E000
FF00
FF00
ENDCHAR

STARTCHAR Eacute
ENCODING 201
SWIDTH 667 0
DWIDTH 9 0
BBX 10 14 1 0
BITMAP
0300
0600
0000
3FC0
3F80
3000
7000
7F00
7F00
6000
6000
E000
FF00
FF00
ENDCHAR

STARTCHAR Ecircumflex
ENCODING 202
SWIDTH 667 0
DWIDTH 9 0
BBX 10 14 1 0
BITMAP
0700
0D80
0000
3FC0
3F80
3000
7000
7F00
7F00
6000
6000
E000
FF00
FF00
ENDCHAR

STARTCHAR Edieresis
ENCODING 203
SWIDTH 667 0
DWIDTH 9 0
BBX 10 14 1 0
BITMAP
0D80
0D80
0000
3FC0
3F80
3000
7000
7F00
7F00
6000
6000
E000
FF00
FF00
ENDCHAR

STARTCHAR Igrave
ENCODING 204
SWIDTH 278 0
DWIDTH 4 0
BBX 5 14 1 0
BITMAP
30
18
00
30
30
30
70
60
60
60
E0
C0
C0
C0
ENDCHAR

STARTCHAR Iacute
ENCODING 205
SWIDTH 278 0
DWIDTH 4 0
BBX 6 14 1 0
BITMAP
0C
18
00
30
30
30
70
60
60
60
E0
C0
C0
C0
ENDCHAR

STARTCHAR Icircumflex
ENCODING 206
SWIDTH 278 0
DWIDTH 4 0
BBX 6 14 1 0
BITMAP
38
6C
00
30
30
30
70
60
60
60
E0
C0
C0
C0
ENDCHAR

STARTCHAR Idieresis
ENCODING 207
SWIDTH 278 0
DWIDTH 4 0
BBX 6 14 1 0
BITMAP
6C
6C
00
30
30
30
70
60
60
60
E0
C0
C0
C0
ENDCHAR

STARTCHAR Eth
ENCODING 208
SWIDTH 722 0
DWIDTH 10 0
BBX 10 11 1 0
BITMAP
3F80
3F80
31C0
30C0
60C0
FCC0
6180
6180
6380
FF00
FE00
ENDCHAR

STARTCHAR Ntilde
ENCODING 209
SWIDTH 722 0
DWIDTH 10 0
BBX 11 14 1 0
BITMAP
0E80
0B80
0000
3860
3860
3860
6CC0
6CC0
6CC0
66C0
66C0
C780
C380
C300
ENDCHAR

STARTCHAR Ograve
ENCODING 210
SWIDTH 778 0
DWIDTH 11 0
BBX 10 14 1 0
BITMAP
0C00
0600
0000
0F00
3F80
71C0
60C0
C0C0
C0C0
C0C0
C180
E380
7F00
3C00
ENDCHAR

STARTCHAR Oacute
ENCODING 211
SWIDTH 778 0
DWIDTH 11 0
BBX 10 14 1 0
BITMAP
0180
0300
0000
0F00
3F80
71C0
60C0
C0C0
C0C0
C0C0
C180
E380
7F00
3C00
ENDCHAR

STARTCHAR Ocircumflex
ENCODING 212
SWIDTH 778 0
DWIDTH 11 0
BBX 10 14 1 0
BITMAP
0700
0D80
0000
0F00
3F80
71C0
60C0
C0C0
C0C0
C0C0
C180
E380
7F00
3C00
ENDCHAR

STARTCHAR Otilde
ENCODING 213
SWIDTH 778 0
DWIDTH 11 0
BBX 10 14 1 0
BITMAP
0E80
0B80
0000
0F00
3F80
71C0
60C0
C0C0
C0C0
C0C0
C180
E380
7F00
3C00
ENDCHAR

STARTCHAR Odieresis
ENCODING 214
SWIDTH 778 0
DWIDTH 11 0
BBX 10 14 1 0
BITMAP
0D80
0D80
0000
0F00
3F80
71C0
60C0
C0C0
C0C0
C0C0
C180
E380
7F00
3C00
ENDCHAR

STARTCHAR multiply
ENCODING 215
SWIDTH 584 0
DWIDTH 8 0
BBX 7 6 1 0
BITMAP
24
7E
3C
78
FC
48
ENDCHAR

STARTCHAR Oslash
ENCODING 216
SWIDTH 778 0
DWIDTH 11 0
BBX 12 11 2 0
BITMAP
0790
1FE0
38E0
30E0
6360
6660
6C60
78C0
71C0
7F80
9E00
ENDCHAR

STARTCHAR Ugrave
ENCODING 217
SWIDTH 722 0
DWIDTH 10 0
BBX 10 14 2 0
BITMAP
0C00
0600
0000
30C0
30C0
6180
6180
6180
E300
C300
C300
C700
FE00
7C00
ENDCHAR

STARTCHAR Uacute
ENCODING 218
SWIDTH 722 0
DWIDTH 10 0
BBX 10 14 2 0
BITMAP
0300
0600
0000
30C0
30C0
6180
6180
6180
E300
C300
C300
C700
FE00
7C00
ENDCHAR

STARTCHAR Ucircumflex
ENCODING 219
SWIDTH 722 0
DWIDTH 10 0
BBX 10 14 2 0
BITMAP
0E00
1B00
0000
30C0
30C0
6180
6180
6180
E300
C300
C300
C700
FE00
7C00
ENDCHAR

STARTCHAR Udieresis
ENCODING 220
SWIDTH 722 0
DWIDTH 10 0
BBX 10 14 2 0
BITMAP
0D80
0D80
0000
30C0
30C0
6180
6180
6180
E300
C300
C300
C700
FE00
7C00
ENDCHAR

STARTCHAR Yacute
ENCODING 221
SWIDTH 667 0
DWIDTH 9 0
BBX 9 14 3 0
BITMAP
0600
0C00
0000
C180
C300
6600
6C00
7C00
3800
3000
3000
3000
3000
6000
ENDCHAR

STARTCHAR Thorn
ENCODING 222
SWIDTH 667 0
DWIDTH 9 0
BBX 9 11 1 0
BITMAP
3000
3000
3F00
3F80
6180
6180
6380
7F00
7E00
C000
C000
ENDCHAR

STARTCHAR germandbls
ENCODING 223
SWIDTH 611 0
DWIDTH 9 0
BBX 8 11 1 0
BITMAP
1E
3F
33
73
6E
6F
63
63
E6
DE
DC
ENDCHAR

STARTCHAR agrave
ENCODING 224
SWIDTH 556 0
DWIDTH 8 0
BBX 7 11 1 0
BITMAP
18
0C
00
3E
7E
46
1E
7E
C6
FE
7A
ENDCHAR

STARTCHAR aacute
ENCODING 225
SWIDTH 556 0
DWIDTH 8 0
BBX 7 11 1 0
BITMAP
06
0C
00
3E
7E
46
1E
7E
C6
FE
7A
ENDCHAR

STARTCHAR acircumflex
ENCODING 226
SWIDTH 556 0
DWIDTH 8 0
BBX 8 11 1 0
BITMAP
0E
1B
00
3E
7E
46
1E
7E
C6
FE
7A
ENDCHAR

STARTCHAR atilde
ENCODING 227
SWIDTH 556 0
DWIDTH 8 0
BBX 8 11 1 0
BITMAP
1D
17
00
3E
7E
46
1E
7E
C6
FE
7A
ENDCHAR

STARTCHAR adieresis
ENCODING 228
SWIDTH 556 0
DWIDTH 8 0
BBX 8 11 1 0
BITMAP
1B
1B
00
3E
7E
46
1E
7E
C6
FE
7A
ENDCHAR

STARTCHAR aring
ENCODING 229
SWIDTH 556 0
DWIDTH 8 0
BBX 7 12 1 0
BITMAP
06
0A
0C
00
3E
7E
46
1E
7E
C6
FE
7A
ENDCHAR

STARTCHAR ae
ENCODING 230
SWIDTH 889 0
DWIDTH 12 0
BBX 12 8 1 0
BITMAP
3EE0
7FF0
0730
1FF0
7FE0
C600
FFF0
73E0
ENDCHAR

STARTCHAR ccedilla
ENCODING 231
SWIDTH 556 0
DWIDTH 8 0
BBX 7 12 1 -4
BITMAP
3C
7E
62
C0
C0
C6
FC
78
20
70
10
E0
ENDCHAR

STARTCHAR egrave
ENCODING 232
SWIDTH 556 0
DWIDTH 8 0
BBX 7 11 1 0
BITMAP
18
0C
00
3C
7E
66
FE
FC
C0
FE
7C
ENDCHAR

STARTCHAR eacute
ENCODING 233
SWIDTH 556 0
DWIDTH 8 0
BBX 7 11 1 0
BITMAP
06
0C
00
3C
7E
66
FE
FC
C0
FE
7C
ENDCHAR

STARTCHAR ecircumflex
ENCODING 234
SWIDTH 556 0
DWIDTH 8 0
BBX 8 11 1 0
BITMAP
0E
1B
00
3C
7E
66
FE
FC
C0
FE
7C
ENDCHAR

STARTCHAR edieresis
ENCODING 235
SWIDTH 556 0
DWIDTH 8 0
BBX 8 11 1 0
BITMAP
1B
1B
00
3C
7E
66
FE
FC
C0
FE
7C
ENDCHAR

STARTCHAR igrave
ENCODING 236
SWIDTH 278 0
DWIDTH 4 0
BBX 4 11 1 0
BITMAP
60
30
00
30
30
60
60
60
C0
C0
C0
ENDCHAR

STARTCHAR iacute
ENCODING 237
SWIDTH 278 0
DWIDTH 4 0
BBX 5 11 1 0
BITMAP
18
30
00
30
30
60
60
60
C0
C0
C0
ENDCHAR

STARTCHAR icircumflex
ENCODING 238
SWIDTH 278 0
DWIDTH 4 0
BBX 6 11 1 0
BITMAP
38
6C
00
30
30
60
60
60
C0
C0
C0
ENDCHAR

STARTCHAR idieresis
ENCODING 239
SWIDTH 278 0
DWIDTH 4 0
BBX 6 11 1 0
BITMAP
6C
6C
00
30
30
60
60
60
C0
C0
C0
ENDCHAR

STARTCHAR eth
ENCODING 240
SWIDTH 611 0
DWIDTH 9 0
BBX 8 11 1 0
BITMAP
32
1C
1E
16
7F
63
C3
C6
C6
FC
78
ENDCHAR

STARTCHAR ntilde
ENCODING 241
SWIDTH 611 0
DWIDTH 9 0
BBX 8 11 1 0
BITMAP
1D
17
00
7E
7F
73
63
63
C6
C6
C6
ENDCHAR

STARTCHAR ograve
ENCODING 242
SWIDTH 611 0
DWIDTH 9 0
BBX 8 11 1 0
BITMAP
18
0C
00
1E
7F
63
C3
C3
C6
FE
78
ENDCHAR

STARTCHAR oacute
ENCODING 243
SWIDTH 611 0
DWIDTH 9 0
BBX 8 11 1 0
BITMAP
06
0C
00
1E
7F
63
C3
C3
C6
FE
78
ENDCHAR

STARTCHAR ocircumflex
ENCODING 244
SWIDTH 611 0
DWIDTH 9 0
BBX 8 11 1 0
BITMAP
0E
1B
00
1E
7F
63
C3
C3
C6
FE
78
ENDCHAR

STARTCHAR otilde
ENCODING 245
SWIDTH 611 0
DWIDTH 9 0
BBX 8 11 1 0
BITMAP
1D
17
00
1E
7F
63
C3
C3
C6
FE
78
ENDCHAR

STARTCHAR odieresis
ENCODING 246
SWIDTH 611 0
DWIDTH 9 0
BBX 8 11 1 0
BITMAP
1B
1B
00
1E
7F
63
C3
C3
C6
FE
78
ENDCHAR

STARTCHAR divide
ENCODING 247
SWIDTH 584 0
DWIDTH 8 0
BBX 7 8 1 0
BITMAP
0C
18
00
FE
FE
00
18
30
ENDCHAR

STARTCHAR oslash
ENCODING 248
SWIDTH 611 0
DWIDTH 9 0
BBX 10 8 2 0
BITMAP
0F40
3F80
3380
6580
6980
7300
7E00
BC00
ENDCHAR

STARTCHAR ugrave
ENCODING 249
SWIDTH 611 0
DWIDTH 9 0
BBX 8 11 1 0
BITMAP
18
0C
00
63
63
63
C6
C6
CE
FE
7C
ENDCHAR

STARTCHAR uacute
ENCODING 250
SWIDTH 611 0
DWIDTH 9 0
BBX 8 11 1 0
BITMAP
06
0C
00
63
63
63
C6
C6
CE
FE
7C
ENDCHAR

STARTCHAR ucircumflex
ENCODING 251
SWIDTH 611 0
DWIDTH 9 0
BBX 8 11 1 0
BITMAP
0E
1B
00
63
63
63
C6
C6
CE
FE
7C
ENDCHAR

STARTCHAR udieresis
ENCODING 252
SWIDTH 611 0
DWIDTH 9 0
BBX 8 11 1 0
BITMAP
1B
1B
00
63
63
63
C6
C6
CE
FE
7C
ENDCHAR

STARTCHAR yacute
ENCODING 253
SWIDTH 556 0
DWIDTH 8 0
BBX 9 14 1 -3
BITMAP
0300
0600
0000
6380
6300
3600
3600
3C00
3C00
3800
3800
3000
E000
C000
ENDCHAR

STARTCHAR thorn
ENCODING 254
SWIDTH 611 0
DWIDTH 9 0
BBX 9 14 0 -3
BITMAP
1800
1800
3000
3700
3F80
3180
7180
6180
7300
7F00
7C00
C000
C000
C000
ENDCHAR

STARTCHAR ydieresis
ENCODING 255
SWIDTH 556 0
DWIDTH 8 0
BBX 9 14 1 -3
BITMAP
1B00
1B00
0000
6380
6300
3600
3600
3C00
3C00
3800
3800
3000
E000
C000
ENDCHAR
ENDFONT
